#!OML:ASF E:\emotionWalksFemale\Project 1\Capture day 1\Session 1\Female1.ASF
:FULLY-SPECIFIED
:DEGREES
1632
root 4.1206 15.164 39.3905 -139.969 76.1956 -500.386
lowerback 5.79031 3.19339 4.02552
upperback -4.0378 5.21488 5.15627
thorax -7.65059 2.59215 2.52777
lowerneck -0.951411 17.7141 16.7724
upperneck 12.957 24.6793 -8.28242
head 7.20253 12.4379 -2.87829
rclavicle -2.78299e-014 -2.38542e-015
rhumerus -11.1889 -0.902567 -42.8818
rradius 31.1364
rwrist 29.4615
rhand -16.2109 -57.9487
rfingers 7.12502
rthumb 9.9967 -447.691
lclavicle -2.78299e-014 -2.38542e-015
lhumerus -63.3869 -5.4431 41.444
lradius 32.7379
lwrist -30.9948
lhand -4.87408 -26.2749
lfingers 7.12502
lthumb 20.9144 2.61761
rfemur -3.23272 -15.8955 29.4028
rtibia 42.9773
rfoot -7.20292 -12.3568
rtoes -28.7585
lfemur -20.6983 -8.57872 -25.1078
ltibia 27.9562
lfoot -30.551 35.3885
ltoes 48.2209
1633
root 4.21254 15.169 39.3894 -144.422 75.6518 -504.77
lowerback 5.73169 3.11224 3.77338
upperback -4.06994 5.05845 4.97261
thorax -7.64855 2.51888 2.4955
lowerneck -0.937847 17.5188 16.6831
upperneck 12.6342 24.4069 -8.45461
head 7.07274 12.2951 -2.97727
rclavicle -5.06901e-015 -1.59028e-015
rhumerus -11.8506 -0.659969 -43.2806
rradius 30.4778
rwrist 31.7632
rhand -15.3643 -57.8416
rfingers 7.12502
rthumb 10.8134 -447.543
lclavicle -5.06901e-015 -1.59028e-015
lhumerus -63.7318 -5.15483 40.7801
lradius 32.0082
lwrist -32.3743
lhand -5.01403 -25.6364
lfingers 7.12502
lthumb 20.7799 3.27089
rfemur -4.42049 -16.4273 28.2215
rtibia 46.1214
rfoot -6.04609 -10.7442
rtoes -31.3562
lfemur -19.8638 -8.76022 -25.822
ltibia 27.343
lfoot -29.2721 35.1641
ltoes 46.8196
1634
root 4.31713 15.1767 39.3984 -148.012 75.2323 -508.236
lowerback 5.73541 3.08114 3.55548
upperback -4.11327 4.96124 4.65646
thorax -7.67976 2.46497 2.29395
lowerneck -0.852889 17.3876 16.2859
upperneck 11.9132 24.137 -8.28298
head 6.72082 12.1571 -2.96932
rclavicle 1.72446e-014 -7.55382e-015
rhumerus -12.7213 -0.690902 -44.1043
rradius 30.0344
rwrist 34.2132
rhand -14.4235 -57.6758
rfingers 7.12502
rthumb 11.7207 -447.328
lclavicle 1.72446e-014 -7.55382e-015
lhumerus -63.9764 -4.93293 39.708
lradius 31.1261
lwrist -33.6998
lhand -5.07094 -26.3789
lfingers 7.12502
lthumb 20.7252 2.53437
rfemur -5.44868 -16.4136 27.1237
rtibia 49.0869
rfoot -5.29853 -9.23978
rtoes -33.2131
lfemur -18.8584 -9.14971 -26.272
ltibia 26.6513
lfoot -30.3273 33.7507
ltoes 49.3071
1635
root 4.41449 15.1896 39.4049 -151.151 74.6108 -511.072
lowerback 5.96915 3.10113 3.84992
upperback -4.10975 4.97682 4.19851
thorax -7.74138 2.43113 1.63428
lowerneck -0.902813 17.1071 16.4411
upperneck 11.4278 23.6616 -8.23962
head 6.52848 11.9273 -3.06062
rclavicle -1.34925e-013 -3.45885e-014
rhumerus -13.8071 -0.643265 -45.1037
rradius 29.66
rwrist 35.8141
rhand -13.2763 -57.7912
rfingers 7.12502
rthumb 12.8268 -447.377
lclavicle -1.34925e-013 -3.45885e-014
lhumerus -64.4678 -5.42683 39.4815
lradius 31.7468
lwrist -33.2023
lhand -4.13158 -25.355
lfingers 7.12502
lthumb 21.6276 3.45711
rfemur -6.27504 -16.2644 26.2168
rtibia 51.8043
rfoot -4.44137 -8.23736
rtoes -35.0353
lfemur -17.6568 -9.60038 -26.7033
ltibia 25.9149
lfoot -29.9222 33.4858
ltoes 49.3929
1636
root 4.49763 15.2014 39.4019 -154.246 73.4532 -513.98
lowerback 6.1176 2.96249 4.23477
upperback -4.11563 4.80979 3.93403
thorax -7.77711 2.31496 1.15595
lowerneck -1.0065 16.8659 16.69
upperneck 11.146 23.3199 -8.58459
head 6.48563 11.7479 -3.23839
rclavicle 3.27001e-014 1.19271e-014
rhumerus -14.7047 0.0334862 -45.9067
rradius 29.3386
rwrist 36.3977
rhand -11.892 -57.9787
rfingers 7.12502
rthumb 14.1611 -447.476
lclavicle 3.27001e-014 1.19271e-014
lhumerus -64.8159 -5.04444 39.1016
lradius 31.8499
lwrist -33.6978
lhand -3.67223 -24.3234
lfingers 7.12502
lthumb 22.0687 4.43736
rfemur -7.24654 -16.4034 25.5399
rtibia 54.3371
rfoot -3.5076 -7.75195
rtoes -36.3943
lfemur -16.6757 -10.006 -27.043
ltibia 25.1548
lfoot -28.489 33.2685
ltoes 48.0361
1637
root 4.58825 15.2189 39.4161 -156.816 72.8064 -516.433
lowerback 5.96388 3.01049 3.5388
upperback -3.9615 4.79643 4.06303
thorax -7.58728 2.35347 1.68962
lowerneck -1.13729 16.7115 16.4413
upperneck 10.8096 23.1281 -9.01617
head 6.39952 11.6216 -3.36605
rclavicle 8.24956e-014 5.92378e-014
rhumerus -15.3056 2.02066 -46.3704
rradius 29.2518
rwrist 35.7692
rhand -10.7244 -58.676
rfingers 7.12502
rthumb 15.286 -448.091
lclavicle 8.24956e-014 5.92378e-014
lhumerus -65.4608 -4.29695 39.2707
lradius 31.8501
lwrist -34.3082
lhand -2.89248 -24.3505
lfingers 7.12502
lthumb 22.8172 4.31991
rfemur -8.22845 -15.7481 24.8932
rtibia 56.6085
rfoot -3.66996 -7.49625
rtoes -35.34
lfemur -15.8107 -9.4563 -27.5681
ltibia 24.5608
lfoot -26.8425 32.8957
ltoes 45.8691
1638
root 4.64886 15.2193 39.398 -160.624 71.2289 -520.499
lowerback 5.80487 2.74048 3.56008
upperback -4.02349 4.41082 3.86197
thorax -7.53735 2.15576 1.52071
lowerneck -1.17536 16.5002 15.9501
upperneck 10.3672 22.8401 -9.22557
head 6.19772 11.4561 -3.42968
rclavicle 1.08686e-013 5.32743e-014
rhumerus -16.0779 3.79623 -46.9483
rradius 29.2455
rwrist 35.1786
rhand -9.20573 -59.178
rfingers 7.12502
rthumb 16.7484 -448.476
lclavicle 1.08686e-013 5.32743e-014
lhumerus -66.0613 -4.15607 39.9431
lradius 31.8911
lwrist -34.2241
lhand -2.76899 -24.8612
lfingers 7.12502
lthumb 22.9357 3.79452
rfemur -9.58092 -16.2056 23.8639
rtibia 58.6953
rfoot -4.18688 -6.28106
rtoes -35.0518
lfemur -15.4513 -9.91227 -28.5283
ltibia 24.1396
lfoot -24.4419 32.8677
ltoes 42.8724
1639
root 4.72438 15.2209 39.4064 -162.861 70.2198 -522.647
lowerback 5.98434 2.75241 3.50321
upperback -4.07553 4.41656 3.67537
thorax -7.68514 2.15008 1.34561
lowerneck -1.19009 16.2127 15.7725
upperneck 10.1202 22.4616 -9.44028
head 6.08058 11.2592 -3.53491
rclavicle -3.18552e-014 -5.60573e-014
rhumerus -16.8577 2.85984 -47.6841
rradius 28.6486
rwrist 36.9613
rhand -7.64435 -58.2947
rfingers 7.12502
rthumb 18.251 -447.458
lclavicle -3.18552e-014 -5.60573e-014
lhumerus -66.5594 -4.31577 40.6876
lradius 31.8871
lwrist -33.7803
lhand -3.08378 -24.8937
lfingers 7.12502
lthumb 22.6336 3.79921
rfemur -10.4575 -15.8892 23.2026
rtibia 60.4223
rfoot -4.55354 -6.38379
rtoes -34.8515
lfemur -14.7677 -10.6437 -28.9813
ltibia 23.8938
lfoot -24.0794 32.6789
ltoes 42.6801
1640
root 4.81265 15.2249 39.4294 -163.904 69.4916 -523.464
lowerback 6.14784 2.84176 3.25637
upperback -4.04473 4.53024 3.7651
thorax -7.7742 2.22116 1.55472
lowerneck -1.24362 15.9529 15.7294
upperneck 10.0156 22.1595 -9.86881
head 6.06442 11.0948 -3.69631
rclavicle 4.29375e-014 1.86858e-014
rhumerus -17.2406 1.28639 -48.3073
rradius 27.6015
rwrist 39.5996
rhand -6.28505 -57.0102
rfingers 7.12502
rthumb 19.5583 -446.046
lclavicle 4.29375e-014 1.86858e-014
lhumerus -67.2385 -3.78251 41.3357
lradius 31.8643
lwrist -33.722
lhand -2.94177 -25.0801
lfingers 7.12502
lthumb 22.7698 3.5961
rfemur -11.1637 -14.9503 23.0295
rtibia 61.8079
rfoot -5.20447 -6.71853
rtoes -34.0579
lfemur -14.0912 -11.3342 -29.0482
ltibia 23.8508
lfoot -24.0075 32.9022
ltoes 41.8491
